<?xml version="1.0" encoding="utf-8"?>
<!-- Generator: Adobe Illustrator 27.0.0, SVG Export Plug-In . SVG Version: 6.00 Build 0)  -->
<svg version="1.2" baseProfile="tiny" id="layer" xmlns="http://www.w3.org/2000/svg" xmlns:xlink="http://www.w3.org/1999/xlink"
	 x="0px" y="0px" viewBox="0 0 1023 1023" overflow="visible" xml:space="preserve">
<g>
	<path fill="#FBB03B" d="M0.14,511.39C0.14,343.53,0.17,175.68,0,7.83C-0.01,1.89,1-0.01,7.5,0c120.58,0.23,241.16,0.22,361.74,0.02
		c6.19-0.01,7.84,1.4,7.77,7.69c-0.36,31.2-0.35,62.41,0.01,93.61c0.07,5.96-1.74,6.89-7.16,6.88
		c-84.62-0.17-169.24-0.03-253.86-0.29c-6.72-0.02-8.03,1.89-8.03,8.24c0.16,263.61,0.17,527.23-0.01,790.84
		c0,6.55,1.63,8.14,8.14,8.12c84.4-0.24,168.8-0.06,253.21-0.33c6.95-0.02,8.33,1.99,8.26,8.5c-0.34,31.2-0.26,62.41-0.04,93.61
		c0.03,4.71-0.99,6.09-5.94,6.09c-121.87-0.15-243.74-0.17-365.61,0.03c-5.81,0.01-5.89-2.4-5.89-6.77
		C0.15,847.95,0.14,679.67,0.14,511.39z"/>
	<path fill="#FBB03B" d="M1022.85,511.84c0,167.62-0.04,335.24,0.15,502.86c0.01,6.09-1.23,7.76-7.59,7.75
		c-120.57-0.28-241.13-0.33-361.7-0.18c-6.24,0.01-7.79-1.52-7.72-7.73c0.35-31.2,0.3-62.4,0.02-93.6c-0.05-5.36,1.27-6.7,6.67-6.68
		c85.04,0.36,170.09,0.41,255.13,0.82c6.29,0.03,7.78-1.61,7.78-7.81c-0.16-263.8-0.17-527.61,0.04-791.41
		c0.01-6.94-2.21-7.93-8.35-7.92c-83.32,0.19-166.64,0.14-249.96,0.11c-11.17,0-11.17-0.1-11.17-11.15c0-30.34,0.09-60.68-0.1-91.02
		c-0.03-4.32,0.81-5.83,5.53-5.82c121.86,0.14,243.72,0.17,365.58-0.05c6.19-0.01,5.73,2.94,5.72,7.03
		c-0.04,167.19-0.04,334.38-0.04,501.57C1022.85,509.69,1022.85,510.76,1022.85,511.84z"/>
	<path fill="#FBB03B" d="M511.5,834.32c-105.3,0-210.6-0.05-315.9,0.15c-5.76,0.01-7.03-1.44-6.98-7.05
		c0.29-31.63,0.24-63.27,0.04-94.91c-0.03-4.64,0.87-6.22,5.93-6.21c108.96,0.21,217.92,0.24,326.88,0.27
		c66.73,0.01,133.47-0.06,200.2-0.09c35.95-0.02,71.9,0.04,107.85-0.14c4.27-0.02,5.38,1.2,5.36,5.43
		c-0.18,32.28-0.23,64.56,0.04,96.84c0.04,5.17-1.72,5.81-6.22,5.81c-92.16-0.12-184.33-0.09-276.49-0.09
		C538.64,834.32,525.07,834.32,511.5,834.32z"/>
	<rect x="350.05" y="273.22" fill="#FBB03B" width="88.31" height="355.58"/>
	<path fill="#FBB03B" d="M191.85,191.86h404.81v88.32H191.85V191.86z M487.15,541.03h87.54v88.32h-87.54V541.03z M615.87,541.03
		h87.54v88.32h-87.54V541.03z M744.81,541.03h87.65v88.32h-87.65V541.03z M744.81,541.03"/>
</g>
</svg>
